<?xml version="1.0" encoding="UTF-8"?>
<svg width="24" height="24" viewBox="0 0 24 24" fill="none" xmlns="http://www.w3.org/2000/svg">
  <path d="M12 15C13.6569 15 15 13.6569 15 12C15 10.3431 13.6569 9 12 9C10.3431 9 9 10.3431 9 12C9 13.6569 10.3431 15 12 15Z" stroke="currentColor" stroke-width="2" stroke-linecap="round"/>
  <path d="M19.4 15C19.1277 15.6171 19.2583 16.3378 19.73 16.82L19.79 16.88C20.1656 17.2551 20.3766 17.7642 20.3766 18.295C20.3766 18.8258 20.1656 19.3349 19.79 19.71C19.4149 20.0856 18.9058 20.2966 18.375 20.2966C17.8442 20.2966 17.3351 20.0856 16.96 19.71L16.9 19.65C16.4178 19.1783 15.697 19.0478 15.08 19.32C14.4789 19.5791 14.0826 20.1724 14.08 20.83V21C14.08 22.1046 13.1846 23 12.08 23C10.9754 23 10.08 22.1046 10.08 21V20.91C10.0642 20.2326 9.63587 19.6339 9 19.4C8.38293 19.1277 7.66219 19.2583 7.18 19.73L7.12 19.79C6.74485 20.1656 6.23583 20.3766 5.705 20.3766C5.17417 20.3766 4.66515 20.1656 4.29 19.79C3.91435 19.4149 3.70337 18.9058 3.70337 18.375C3.70337 17.8442 3.91435 17.3351 4.29 16.96L4.35 16.9C4.82167 16.4178 4.95225 15.697 4.68 15.08C4.42093 14.4789 3.82755 14.0826 3.17 14.08H3C1.89543 14.08 1 13.1846 1 12.08C1 10.9754 1.89543 10.08 3 10.08H3.09C3.76745 10.0642 4.36611 9.63587 4.6 9C4.87225 8.38293 4.74167 7.66219 4.27 7.18L4.21 7.12C3.83435 6.74485 3.62337 6.23583 3.62337 5.705C3.62337 5.17417 3.83435 4.66515 4.21 4.29C4.58515 3.91435 5.09417 3.70337 5.625 3.70337C6.15583 3.70337 6.66485 3.91435 7.04 4.29L7.1 4.35C7.58219 4.82167 8.30293 4.95225 8.92 4.68H9C9.60114 4.42093 9.99745 3.82755 10 3.17V3C10 1.89543 10.8954 1 12 1C13.1046 1 14 1.89543 14 3V3.09C14.0026 3.74755 14.3989 4.34093 15 4.6C15.6171 4.87225 16.3378 4.74167 16.82 4.27L16.88 4.21C17.2551 3.83435 17.7642 3.62337 18.295 3.62337C18.8258 3.62337 19.3349 3.83435 19.71 4.21C20.0856 4.58515 20.2966 5.09417 20.2966 5.625C20.2966 6.15583 20.0856 6.66485 19.71 7.04L19.65 7.1C19.1783 7.58219 19.0478 8.30293 19.32 8.92V9C19.5791 9.60114 20.1724 9.99745 20.83 10H21C22.1046 10 23 10.8954 23 12C23 13.1046 22.1046 14 21 14H20.91C20.2526 14.0026 19.6592 14.3989 19.4 15Z" stroke="currentColor" stroke-width="2" stroke-linecap="round"/>
</svg>
